<?xml version="1.0" standalone="no"?><!DOCTYPE svg PUBLIC "-//W3C//DTD SVG 1.1//EN" "http://www.w3.org/Graphics/SVG/1.1/DTD/svg11.dtd"><svg class="icon" height="512" viewBox="0 0 1024 1024" version="1.1" xmlns="http://www.w3.org/2000/svg"><path d="M512 16C240 16 16 240 16 512s224 496 496 496 496-224 496-496S784 16 512 16z m0 960C256 976 48 768 48 512S256 48 512 48 976 256 976 512 768 976 512 976z" fill="#737373" /><path d="M736 480h-192V288c0-19.2-12.8-32-32-32s-32 12.8-32 32v192H288c-19.2 0-32 12.8-32 32s12.8 32 32 32h192v192c0 19.2 12.8 32 32 32s32-12.8 32-32v-192h192c19.2 0 32-12.8 32-32s-12.8-32-32-32z" fill="#737373" /></svg>